<svg width="24" height="24" viewBox="0 0 24 24" fill="none" xmlns="http://www.w3.org/2000/svg">
<g>
<path fill-rule="evenodd" clip-rule="evenodd" d="M24 11.4594C23.9989 18.1172 18.9746 22.991 12.0007 22.991C10.8387 22.991 9.73175 22.8875 8.69326 22.6339C7.82979 22.4233 6.9283 22.4448 6.08633 22.7319L2.08491 23.96C1.44042 24.1801 0.814933 23.5538 1.03343 22.8845L1.82791 20.2547C2.12542 19.3428 2.00991 18.3423 1.51042 17.5274C0.453451 15.802 0.00245708 13.741 0.00195312 11.4594V11.4584V11.4574C0.00296104 4.8002 5.02735 0.00488281 12.0007 0.00488281C18.9746 0.00488281 23.9989 4.8002 24 11.4574V11.4584V11.4594Z" fill="currentColor"/>
</g>
</svg>
