<svg width="32" height="33" viewBox="0 0 32 33" fill="none" xmlns="http://www.w3.org/2000/svg">
<path fill-rule="evenodd" clip-rule="evenodd" d="M32 16.3628C32 7.44501 25.0133 0.842773 16 0.842773C6.98672 0.842773 0 7.44501 0 16.3628C0 21.0273 1.91168 25.058 5.0249 27.8421C5.28624 28.0759 5.444 28.4038 5.45472 28.7543L5.54182 31.6007C5.56966 32.5083 6.50742 33.0992 7.33818 32.7324L10.5139 31.3306C10.7831 31.2117 11.0848 31.1896 11.3685 31.2676C12.8278 31.6689 14.381 31.8828 16 31.8828C25.0133 31.8828 32 25.2805 32 16.3628ZM24.5055 11.7734C25.1794 11.262 26.0589 12.0684 25.608 12.784L20.908 20.2407C20.1603 21.4269 18.5594 21.7223 17.4377 20.881L13.6994 18.0773C13.3565 17.8201 12.8845 17.8214 12.543 18.0806L7.49446 21.9122C6.82064 22.4235 5.94102 21.6171 6.39206 20.9015L11.0921 13.4449C11.8397 12.2586 13.4406 11.9633 14.5624 12.8046L18.3005 15.6082C18.6435 15.8654 19.1154 15.8641 19.457 15.6049L24.5055 11.7734Z" fill="currentColor"/>
</svg>
