<svg width="32" height="33" viewBox="0 0 32 33" fill="none" xmlns="http://www.w3.org/2000/svg">
<path d="M10.009 30.1871C10.009 30.1871 10.0091 30.1871 10.0091 30.1871C10.5418 29.9519 11.1389 29.908 11.6999 30.0624C13.0498 30.4336 14.4914 30.6328 16 30.6328C24.3685 30.6328 30.75 24.5455 30.75 16.3628C30.75 8.1801 24.3685 2.09277 16 2.09277C7.63148 2.09277 1.25 8.1801 1.25 16.3628C1.25 20.6716 3.01014 24.3635 5.85815 26.9104L5.85824 26.9105C6.36569 27.3643 6.68258 28.0113 6.70414 28.7161M10.009 30.1871L6.79124 31.5624L6.70414 28.7161M10.009 30.1871L6.8334 31.5889L6.83338 31.5889C6.82652 31.5919 6.82298 31.5925 6.8223 31.5926C6.82143 31.5928 6.82091 31.5928 6.82022 31.5927C6.81832 31.5926 6.81257 31.5915 6.80524 31.5868C6.79792 31.5822 6.79443 31.5775 6.79346 31.5759C6.7931 31.5753 6.79289 31.5748 6.79264 31.574C6.79245 31.5733 6.79147 31.5699 6.79124 31.5625L10.009 30.1871ZM6.70414 28.7161L5.45472 28.7543L6.70413 28.7161L6.70414 28.7161Z" stroke="currentColor" stroke-width="2.5"/>
<path d="M24.8858 12.9629C25.3028 12.2789 24.4894 11.508 23.8662 11.9968V11.9968L19.1971 15.6595C18.8812 15.9072 18.4448 15.9085 18.1276 15.6626V15.6626L14.6704 12.9826C13.633 12.1784 12.1524 12.4607 11.461 13.5947V13.5947L7.11424 20.7226C6.6971 21.4067 7.5106 22.1775 8.13378 21.6887V21.6887L12.8029 18.0261C13.1187 17.7783 13.5552 17.777 13.8723 18.0229V18.0229L17.3296 20.703C18.367 21.5073 19.8476 21.2248 20.5391 20.091V20.091L24.8858 12.9629Z" fill="currentColor"/>
</svg>
