<svg width="32" height="32" viewBox="0 0 32 32" fill="none" xmlns="http://www.w3.org/2000/svg">
<path fill-rule="evenodd" clip-rule="evenodd" d="M30 16C30 23.732 23.732 30 16 30C8.268 30 2 23.732 2 16C2 8.268 8.268 2 16 2C23.732 2 30 8.268 30 16Z" stroke="currentColor" stroke-width="2" stroke-linecap="round" stroke-linejoin="round"/>
<path d="M12 12.6735C12 10.6325 13.791 8.97949 16 8.97949C18.209 8.97949 20 10.6325 20 12.6735C20 14.7135 18.194 16.3325 15.985 16.3325V18.6455" stroke="currentColor" stroke-width="2" stroke-linecap="round" stroke-linejoin="round"/>
<path fill-rule="evenodd" clip-rule="evenodd" d="M16 21C15.173 21 14.5 21.673 14.5 22.5C14.5 23.327 15.173 24 16 24C16.827 24 17.5 23.327 17.5 22.5C17.5 21.673 16.827 21 16 21" fill="currentColor"/>
</svg>
