<svg width="32" height="32" viewBox="0 0 32 32" fill="none" xmlns="http://www.w3.org/2000/svg">
<path fill-rule="evenodd" clip-rule="evenodd" d="M17.4844 17.419V18.5C17.4844 19.328 16.8124 20 15.9844 20C15.1564 20 14.4844 19.328 14.4844 18.5V16.107C14.4844 15.279 15.1564 14.607 15.9844 14.607C17.4474 14.607 18.6374 13.582 18.6374 12.322C18.6374 11.042 17.4544 10 16.0004 10C14.5464 10 13.3624 11.042 13.3624 12.322C13.3624 13.15 12.6904 13.822 11.8624 13.822C11.0344 13.822 10.3624 13.15 10.3624 12.322C10.3624 9.388 12.8914 7 16.0004 7C19.1084 7 21.6374 9.388 21.6374 12.322C21.6374 14.751 19.8764 16.803 17.4844 17.419M16.0004 26C14.8974 26 14.0004 25.103 14.0004 24C14.0004 22.898 14.8974 22 16.0004 22C17.1024 22 18.0004 22.898 18.0004 24C18.0004 25.103 17.1024 26 16.0004 26M16.0004 1C7.72837 1 1.00037 7.729 1.00037 16C1.00037 24.272 7.72837 31 16.0004 31C24.2714 31 31.0004 24.272 31.0004 16C31.0004 7.729 24.2714 1 16.0004 1" fill="currentColor"/>
</svg>
