<svg width="36" height="36" viewBox="0 0 36 36" fill="none" xmlns="http://www.w3.org/2000/svg">
<path fill-rule="evenodd" clip-rule="evenodd" d="M18 29C24.0751 29 29 24.0751 29 18C29 11.9249 24.0751 7 18 7C11.9249 7 7 11.9249 7 18C7 24.0751 11.9249 29 18 29ZM11.5 14C11.5 13.4477 11.9477 13 12.5 13H23.5C24.0523 13 24.5 13.4477 24.5 14C24.5 14.5523 24.0523 15 23.5 15H12.5C11.9477 15 11.5 14.5523 11.5 14ZM12.5 17C11.9477 17 11.5 17.4477 11.5 18C11.5 18.5523 11.9477 19 12.5 19H23.5C24.0523 19 24.5 18.5523 24.5 18C24.5 17.4477 24.0523 17 23.5 17H12.5ZM12.5 21C11.9477 21 11.5 21.4477 11.5 22C11.5 22.5523 11.9477 23 12.5 23H23.5C24.0523 23 24.5 22.5523 24.5 22C24.5 21.4477 24.0523 21 23.5 21H12.5Z" fill="currentColor"/>
</svg>
