<svg width="36" height="36" viewBox="0 0 36 36" fill="none" xmlns="http://www.w3.org/2000/svg">
<path fill-rule="evenodd" clip-rule="evenodd" d="M16 8.5C14.4812 8.5 13.25 9.73122 13.25 11.25V22.75C13.25 25.3734 15.3766 27.5 18 27.5C20.6234 27.5 22.75 25.3734 22.75 22.75V14.25C22.75 13.5596 23.3096 13 24 13C24.6904 13 25.25 13.5596 25.25 14.25V22.75C25.25 26.7541 22.0041 30 18 30C13.9959 30 10.75 26.7541 10.75 22.75V11.25C10.75 8.35051 13.1005 6 16 6C18.8995 6 21.25 8.3505 21.25 11.25V20.75C21.25 22.5449 19.7949 24 18 24C16.2051 24 14.75 22.5449 14.75 20.75V14C14.75 13.3096 15.3096 12.75 16 12.75C16.6904 12.75 17.25 13.3096 17.25 14V20.75C17.25 21.1642 17.5858 21.5 18 21.5C18.4142 21.5 18.75 21.1642 18.75 20.75V11.25C18.75 9.73122 17.5188 8.5 16 8.5Z" fill="currentColor"/>
</svg>
